<?xml version="1.0" encoding="UTF-8"?>
<svg id="Layer_1" data-name="Layer 1" xmlns="http://www.w3.org/2000/svg" viewBox="0 0 283.46 283.46">
  <defs>
    <style>
      .cls-1 {
        letter-spacing: 0em;
      }

      .cls-2 {
        letter-spacing: -.01em;
      }

      .cls-3 {
        letter-spacing: -.08em;
      }

      .cls-4, .cls-5 {
        fill: #f1f2f2;
      }

      .cls-5 {
        font-family: NeverMindDisplay-Medium, 'NeverMind Display';
        font-size: 22.41px;
        font-weight: 500;
      }
    </style>
  </defs>
  <text class="cls-5" transform="translate(181.42 168.14)"><tspan class="cls-2" x="0" y="0">S</tspan><tspan class="cls-1" x="13.46" y="0">A</tspan><tspan class="cls-3" x="31.23" y="0">F</tspan><tspan x="41.9" y="0">ARIS</tspan></text>
  <g>
    <path class="cls-4" d="m133.68,117.6l2.49,2.68s-.19,1.24-1.34,1.34c0,0,3.06.67,3.82-1.15s-.1-3.63-.1-3.63c0,0-.48,2.68-1.62,2.29s-3.25-1.53-3.25-1.53Z"/>
    <path class="cls-4" d="m144.39,119.03s.86,3.63,4.87,4.68c0,0-.1,1.24-1.24,1.43,0,0,5.64,1.91,6.5-7.84l-.76-.19s-1.34,4.11-3.35,5.26c0,0-4.3-1.72-6.02-3.35Z"/>
    <path class="cls-4" d="m157.1,113.87s2.39,2.77,4.49,3.15l-.86,1.72s4.4,0,7.26-6.69l-4.59,3.44s-3.92.48-6.31-1.62Z"/>
  </g>
  <g>
    <path class="cls-4" d="m28.26,118.93s-1.53-2.3-.58-3.9,3.58-3.13,5.63-3.13h5.7c1.79,0,3.54.49,5.06,1.42.89.55,1.71,1.2,1.96,1.84.64,1.6.19,2.17-.26,2.81s-.77,1.02-.77,1.02c0,0,.83,1.09.51,3.26-.32,2.17-2.24,2.37-2.24,2.37,0,0,.51,3.01-.96,3.58,0,0,1.15,3.77,1.09,4.09s-1.66.51-1.66.51l.06-4.73s.38-.38.38-1.66-.13-1.79-.13-1.79c0,0,3.45-1.47,2.37-5.11l-.45-1.15s1.15-1.34.7-2.69-2.37-1.85-2.37-1.85c0,0-.83,2.3-.19,3.45s2.17,2.11,1.85,3.32-1.79,1.15-2.17.7-.51-.64-.51-.64c0,0,1.09,2.62-2.05,2.75,0,0,2.11,0,2.11,1.47s-1.53,1.79-1.53,1.79c0,0,1.15.64,1.15,1.92s-1.47,1.98-1.47,1.98c0,0,1.15.38,1.15,1.66s-1.28,1.47-1.28,1.47c0,0,1.28.51,1.28,1.6s-1.28,1.53-1.28,1.53c0,0,1.28.45,1.28,1.73s-1.21,1.66-1.21,1.66c0,0,.77.26.64,1.73s-1.34,14-.7,17.9,3.58,7.1,3.58,7.1l.06.9.06.96s.96.51,1.02.7-.13.45-.38.45-.64-.13-.9-.32-.64-.58-.64-.58l-.38-2.11s.06,1.02-.45,1.02-.51-1.98-.51-1.98c0,0-.32.64-1.41-.32-1.09-.96-2.43-3.45-3.07-6.78s-.9-6.07-.9-6.07c0,0-.7-.64-.51-1.41s.45-1.21.45-1.21c0,0-1.28-.9-1.02-1.53s.58-.9.58-.9c0,0-.45-.64-.45-1.02s.51-1.02.51-1.02c0,0-.77-.7-.32-1.41s.45-.9.45-.9c0,0-.96-.32-.96-.83s1.47-.7.9-1.28-1.34-1.02-.7-1.53,1.09-.51,1.09-.51c0,0-1.41-.64-1.34-1.34s1.41-1.66,1.41-1.66c0,0-1.66.26-1.66-.77s1.53-1.85,1.53-1.85c0,0-1.92-.58-1.79-1.53s1.85-1.66,1.85-1.66c0,0-1.98-.38-1.98-1.47s1.73-2.3,1.73-2.3c0,0-2.69.26-2.81-1.02s3.58-2.49,3.58-2.49c0,0-3.39.64-3.9-.77-.51-1.41,0-2.81,0-2.81,0,0-.83,1.73-2.05,1.53s-.77-2.24.13-2.88.96-1.09,1.02-1.53,0-2.94,0-2.94c0,0-2.69,1.15-2.75,2.62s-.19,2.56-.19,2.56Z"/>
    <path class="cls-4" d="m31.13,111.63s-2.97.96-4.32,3.21c0,0-1.15-1.97-1.87-2.06s-5.42.29-6.23.72c-.82.43-4.51,3.36-4.51,3.36,0,0,2.49-2.93,4.46-3.93,1.97-1.01,4.6-2.3,6.47-2.3h4.84s1.15-.05,1.15,1.01Z"/>
    <path class="cls-4" d="m31.14,133.9s-2.17,9.08-1.98,10.81c.19,1.73,1.28,4.67,2.05,5.75s1.79,2.81.64,2.24-4.6-4.28-4.6-7.22.9-8.31,1.28-9.72.9-2.24.9-2.24l1.73.38Z"/>
    <path class="cls-4" d="m43.55,133.13s-2.43.13-1.92,1.28,1.92,6.07,1.73,9.14c-.19,3.07-.38,4.22-1.6,5.88s-2.05,3.13-1.34,2.69,4.48-2.94,5.11-7.29c.64-4.35-1.41-10.04-1.53-10.68s-.45-1.02-.45-1.02Z"/>
    <g>
      <path class="cls-4" d="m29.5,134.44s-.68-1.54-1.45-2.31c-.48-.48-2.9-.45-4.47-.27l-.26.03-1.41-2.54c-.35-.62-1.44-.7-2.71-.78-.58-.04-1.19-.08-1.8-.17-2.38-.37-4.74-5.44-4.99-6.29-.42-1.43-.89-1.35-1.09-1.32-.38.06-.7,0-.94-.18-.34-.26-.44-.7-.49-1.13-.11-.97,5.1-6.03,6.08-6.87,1.83-1.57,8.05-3.69,8.32-3.78l.13-.02h5.37c1.48,0,2.31,1.06,2.64,1.82,3.55-.35,7.1-.06,7.96.01l1.44-1.44h.14c.24-.03,5.8-.52,7.71.14,4.04,1.39,6.49,2.49,7.48,3.34,1.35,1.16,5.19,5.61,5.35,5.8l.06.09c.06.13.58,1.25.24,1.99-.13.28-.37.48-.7.56-.61.15-.97.3-1.15.39-.23,1.08-1.58,6.2-6.49,7.04-.59,0-2.08.14-2.66.72-.22.22-.41.45-.61.7-.58.7-1.23,1.49-2.57,2.13-1.74.84-2.4.82-2.52.8l-2.03-.13.05-.8,2.05.13s.56.02,2.1-.73c1.18-.57,1.75-1.26,2.3-1.92.22-.26.43-.52.66-.75.92-.92,2.93-.95,3.16-.95,4.83-.83,5.8-6.51,5.81-6.57l.03-.17.15-.1s.47-.3,1.53-.57c.11-.03.14-.07.17-.12.13-.27-.05-.89-.22-1.25-.4-.46-3.99-4.61-5.23-5.67-.9-.77-3.33-1.84-7.22-3.19-1.59-.55-6.35-.19-7.24-.12l-1.5,1.5-.19-.02s-4.23-.44-8.29,0l-.34.04-.09-.33c-.02-.06-.46-1.56-1.98-1.56h-5.3c-.66.23-6.37,2.22-7.99,3.61-1.95,1.67-5.64,5.64-5.81,6.25.02.06.06.42.18.51.05.04.17.05.32.02,1.36-.22,1.83,1.36,1.98,1.88.33,1.13,2.57,5.45,4.35,5.73.58.09,1.16.13,1.73.16,1.44.09,2.79.18,3.35,1.19l1.15,2.07c1.06-.1,4.02-.31,4.86.53.87.87,1.59,2.48,1.62,2.55l-.73.32Z"/>
      <path class="cls-4" d="m29.73,169.99c-.25,0-.51-.02-.79-.09-1.46-.34-3.04-1.06-3.75-3.74-.67-2.55,1.12-4.98,1.58-5.55-.02-1.24-.19-9.9-.94-12.87-.43-1.7-1.04-2.38-2.05-3.5-.85-.95-1.91-2.13-3.28-4.38-3.06-5.01-1.33-11.49-1.26-11.76l.77.21c-.02.06-1.71,6.42,1.17,11.13,1.33,2.18,2.36,3.34,3.19,4.26,1.01,1.13,1.75,1.95,2.23,3.84.83,3.27.97,12.8.97,13.2v.15s-.1.12-.1.12c-.02.02-2.15,2.5-1.51,4.94.68,2.58,2.29,2.96,3.16,3.16.94.22,1.78-.16,1.79-.16l.15-.07.15.05c.47.16,1.27.31,1.61.15.38-.19,1.34-1.39,1.9-2.17l.65.46c-.24.34-1.5,2.08-2.19,2.43-.65.33-1.69.06-2.08-.06-.24.09-.75.25-1.36.25Z"/>
      <path class="cls-4" d="m46.69,170.8h-12.95v-2.64h.8v1.84h11.35v-1.52c0-.46-.99-1.29-1.67-1.71l-.17-.11v-.21s-.14-2.01-.14-3.35,0-4.45,1.54-11.85c1.16-5.55,3.05-7.59,4.88-9.56.63-.68,1.29-1.39,1.9-2.23,2.32-3.17,1.78-11.23,1.78-11.31l.8-.06c.02.34.56,8.43-1.93,11.84-.65.88-1.32,1.61-1.96,2.31-1.83,1.98-3.57,3.85-4.68,9.18-1.53,7.31-1.53,10.38-1.53,11.68,0,1.07.08,2.56.11,3.1.55.36,1.87,1.34,1.87,2.27v2.32Z"/>
    </g>
    <path class="cls-4" d="m33.12,151.86s.9,6.59.96,9.72c.06,3.13.06,6.27.06,6.27,0,0,1.09-.13,1.28-.45s.26-3.32.26-3.32c0,0,4.35,5.88,5.63,6.27,1.28.38,2.17-.13,2.17-.13,0,0-2.3-.19-4.41-2.94s-3.71-5.24-4.09-7.61-.83-5.5-1.85-7.8Z"/>
    <path class="cls-4" d="m47.96,121.43s.7,2.49.96,4.92.13,3.77.13,3.77c0,0,1.6-1.41,1.73-2.11s-.77-4.67-2.81-6.59Z"/>
    <path class="cls-4" d="m50.13,118.68s3.07,4.54,3.96,5.82,1.34,2.37,1.34,2.37c0,0,1.47-.64,2.43-1.85,0,0-2.62-5.05-7.74-6.33Z"/>
    <path class="cls-4" d="m41.88,111.33s3.58,1.6,4.6,3.07c0,0,.9-1.66,3.13-1.53,2.24.13,4.48.9,6.01,1.98,1.53,1.09,5.69,4.48,5.69,4.48,0,0-3.58-4.73-7.22-6.46-3.64-1.73-4.92-2.17-5.69-2.17h-5.88l-.64.64Z"/>
  </g>
  <g>
    <polygon class="cls-4" points="71.65 150.29 66.43 150.29 66.43 153.32 71.65 153.32 71.64 168.39 75.68 168.39 75.69 153.32 80.88 153.32 80.88 150.29 75.69 150.29 71.65 150.29"/>
    <path class="cls-4" d="m92.14,160.08c.95-.43,1.68-1.04,2.21-1.81.53-.77.79-1.65.79-2.63,0-1.03-.26-1.96-.78-2.77-.52-.81-1.25-1.44-2.18-1.89-.93-.45-1.99-.68-3.18-.68h-6.49v18.08h4.03v-7.66h.37s4.69,7.66,4.69,7.66h4.63l-5.38-7.89c.45-.11.89-.23,1.3-.42Zm-5.79-6.84h2.49c.47,0,.89.1,1.27.29.37.19.67.46.88.81.21.35.32.74.32,1.18s-.1.82-.3,1.17-.48.62-.84.81c-.36.19-.77.29-1.22.29h-2.59v-4.55Z"/>
    <polygon class="cls-4" points="101.78 161.86 108.11 161.86 108.11 158.83 101.78 158.83 101.78 153.37 108.72 153.37 108.72 150.34 97.75 150.33 97.75 168.39 100.37 168.39 101.78 168.39 108.98 168.39 108.98 165.36 101.78 165.36 101.78 161.86"/>
    <polygon class="cls-4" points="126.03 150.26 121.22 150.26 116 159.42 114.95 159.42 114.95 150.26 110.92 150.26 110.92 168.39 114.95 168.39 114.95 162.44 116.6 162.44 121.51 168.39 126.65 168.39 119.63 160.54 126.03 150.26"/>
    <polygon class="cls-4" points="143.09 150.26 138.28 150.26 133.06 159.42 132.01 159.42 132.01 150.26 127.98 150.26 127.98 168.39 132.01 168.39 132.01 162.44 133.66 162.44 138.57 168.39 143.71 168.39 136.7 160.54 143.09 150.26"/>
    <polygon class="cls-4" points="149.07 161.86 155.41 161.86 155.41 158.83 149.07 158.83 149.07 153.37 156.01 153.37 156.01 150.34 145.04 150.33 145.04 168.39 147.66 168.39 149.07 168.39 156.28 168.39 156.28 165.36 149.07 165.36 149.07 161.86"/>
    <path class="cls-4" d="m167.3,168.39h4.63l-5.38-7.89c.45-.11.89-.23,1.3-.42.95-.43,1.68-1.04,2.21-1.81.53-.77.79-1.65.79-2.63,0-1.03-.26-1.96-.78-2.77-.52-.81-1.25-1.44-2.18-1.89-.93-.45-1.99-.68-3.18-.68h-6.49v18.08h4.03v-7.66h.37s4.69,7.66,4.69,7.66Zm-5.24-15.14h2.49c.47,0,.89.1,1.27.29.37.19.67.46.88.81.21.35.32.74.32,1.18s-.1.82-.3,1.17-.48.62-.84.81c-.36.19-.77.29-1.22.29h-2.59v-4.55Z"/>
  </g>
  <g>
    <polygon class="cls-4" points="88.54 138.47 84.14 124.99 78.55 124.99 81.51 131.94 78.87 139.16 72.13 124.99 66.43 124.99 77.78 148.17 78.66 148.17 83.86 137.44 88.43 148.16 89.3 148.16 98.98 124.99 93.39 124.99 88.54 138.47"/>
    <rect class="cls-4" x="101.1" y="124.98" width="4.94" height="22.17"/>
    <polygon class="cls-4" points="114.16 124.98 109.22 124.98 109.22 147.15 110.39 147.15 114.16 147.15 122.77 147.15 122.77 143.44 114.16 143.44 114.16 124.98"/>
    <path class="cls-4" d="m125.64,147.15c-.24-.36-.49-.74-.75-1.1v1.1h.75Z"/>
    <path class="cls-4" d="m142.37,130.1c-1.04-1.65-2.52-2.91-4.45-3.8-1.93-.89-4.19-1.33-6.79-1.33h-6.25v8.09c.29-.04.57-.08.93-.12.86-.09,1.01.06,1.51-.5l.98-1.03c.82-.72,1.08-.4,1.92-1.45.25-.31.36-.48.59-.78.26-.34.94-1.37,1.19-1.55,1.14-.86,3.46.35,4.13.86.9.68.25,1.11.71,2.03l1.04,1.7c.29.48.28.72.48.89.68.61,1.15.07.49,1.64-.34.81-.4.22-.7.67.2.55.4.12.65.53.13.21.12.55.34.93.16.28.34.52.49.8.38.73-.11.55.38.94.2.13.21.13.4.35-.21.97-.2.79-.54.99-.69.4-1.89,2.43-2.14,2.7l-1.78-.18c-.26-1.26-.23-2.06-.64-3.35l.04,1.39c.11,2.23-.21,4.08.13,6.08-.09.02-.17.07-.27.09-.22-1.86-.04-3.99-.14-5.35-.08-1.11-.14-1.76-.62-2.69-.17-.33-.94-1.65-1.4-1.78-.66-.88-2.74-1.63-4.37-1.43l.43.14-.36.21c-1.45.07-1.94.96-2.38,2.09-.42,1.08-.82,2.44-.7,3.74.03.26.04.42.12.68l.23.42c.64-.89,1.58-1.51,3.1-1.82,1.95-.4,2.61-.32,3.75.8.88.87,1.27,2.18,1.4,3.5.04.43.09,1.04.17,1.65-1,.17-2.03.3-3.16.3,2.57,0,4.81-.46,6.71-1.37,1.9-.91,3.37-2.22,4.4-3.91,1.03-1.69,1.55-3.68,1.55-5.96s-.52-4.16-1.56-5.8Z"/>
    <path class="cls-4" d="m125.19,135.06c.76-.6,1.49-.79,1.7-1.02-.33-.23-.89-.32-1.38-.35-.2-.01-.41-.01-.62-.01v-.07s0,1.74,0,1.74c.1-.09.17-.17.31-.28Z"/>
    <path class="cls-4" d="m138.12,139.49c.31.04.82.02,1.22,0,.51-.03.51-.08.63-.5-.67-.2-1.82-.66-1.85.5Z"/>
    <path class="cls-4" d="m137.56,135.86c-.24.3-.07.2-.43.37-.51.01-1.5-.46-2.14-.42.33.43.19.33.66.71,1.17.94-.26.62,1.93.97.36.1.28.02.31.56,0,.19,0,.42,0,.62,1.96-.46,1.29-.69.77-1.9-.29.03-.28.1-.55,0l.37-.75-.93-.16Z"/>
    <path class="cls-4" d="m138.75,133.9c-1.32.22-1.62-1.33-3.02-1.19l-.18.2c-.31.32-.44.48-.54,1,.66-.04,1.22-.41,2.15.43,0,0,.02.02.03.04.03,0,1.33.87,1.56-.47Z"/>
    <path class="cls-4" d="m137.45,135.21c-.18-.06-.11,0-.27-.11-.11-.07-.07-.08-.09-.13-.33-.15-.47-.35-.71-.32-.15.54.28.83.83.82l.24-.26Z"/>
    <path class="cls-4" d="m131.26,130.35c.25-.29.46-.49.69-.77.32-.38.52-.36,1.17-.27l-.2.22c.61.07.32.05.38.2l2.01-.06c.26.28.93,1.3.96,1.63.11.08.08.05.17.13.43.38.69.85,1.24,1.04l-.79-1.29c-.54-.9-.24-.7-.39-1.7-.33-.34-.63-.76-1.07-.94-.43-.34-1.06-.67-1.75-.81-.93-.19-1.27.1-1.7.6-.75.88-1.56,2.24-1.82,2.55-.21.25-.07.13-.35.26l.04.07-.3.26c.87.09.94-.26,1.71-1.13Z"/>
    <rect class="cls-4" x="119.54" y="140.69" width="10.7" height="0" transform="translate(-62.9 129.52) rotate(-45)"/>
    <polygon class="cls-4" points="124.89 133.6 124.89 133.06 124.89 133.06 124.89 133.6"/>
  </g>
</svg>